
<svg width="2625px" height="357px" viewBox="0 0 2625 357" version="1.1" xmlns="http://www.w3.org/2000/svg" xmlns:xlink="http://www.w3.org/1999/xlink">
    <!-- Generator: Sketch 49.3 (51167) - http://www.bohemiancoding.com/sketch -->
    <desc>Created with Sketch.</desc>
    <defs>
        <linearGradient x1="0%" y1="40.9839013%" x2="100%" y2="40.9839004%" id="linearGradient-1">
            <stop stop-color="#005EFF" stop-opacity="0" offset="0%"></stop>
            <stop stop-color="#0037FF" offset="51.4292811%"></stop>
            <stop stop-color="#005EFF" stop-opacity="0" offset="100%"></stop>
        </linearGradient>
        <linearGradient x1="50%" y1="0%" x2="50%" y2="100%" id="linearGradient-2">
            <stop stop-color="#65F3FF" offset="0%"></stop>
            <stop stop-color="#35E4FF" offset="100%"></stop>
        </linearGradient>
        <linearGradient x1="1.17782118%" y1="50%" x2="100%" y2="50%" id="linearGradient-3">
            <stop stop-color="#FFFFFF" stop-opacity="0" offset="0%"></stop>
            <stop stop-color="#3FFDFF" offset="100%"></stop>
        </linearGradient>
    </defs>
    <g id="Page-1" stroke="none" stroke-width="1" fill="none" fill-rule="evenodd">
        <g id="Group-8-Copy" transform="translate(0.000000, 7.000000)">
            <polygon id="Rectangle-3" fill="url(#linearGradient-1)" opacity="0.881227355" points="0 0 2622.94371 0 2624.88041 341.054182 0.987654582 349.194593"></polygon>
            <g id="Group-11" transform="translate(643.000000, 93.000000)">
                <rect id="Rectangle-4" fill="#FFF200" x="575" y="12" width="263.155292" height="43.71909" rx="21.859545"></rect>
                <path d="M632.007812,44 L632.007812,27.7880859 L625.279297,27.7880859 L625.279297,25.2109375 L642.65918,25.2109375 L642.65918,27.7880859 L635.930664,27.7880859 L635.930664,44 L632.007812,44 Z M654.36981,40.724 L654.36981,42.96 C656.65781,39.216 657.82781,33.912 657.87981,26.996 L657.87981,26.008 L655.61781,26.008 L655.61781,23.46 L667.49981,23.46 L667.49981,25.15 C667.10981,27.256 666.71981,29.076 666.32981,30.636 L669.50181,30.636 L669.50181,32.144 C668.92981,35.654 667.81181,38.592 666.14781,40.984 C667.44781,42.258 668.90381,43.402 670.56781,44.416 L668.85181,46.73 C667.18781,45.612 665.73181,44.364 664.48381,43.012 C662.94981,44.572 661.12981,45.82 659.04981,46.782 L657.54181,44.312 C659.56981,43.324 661.28581,42.128 662.66381,40.724 C661.49381,39.034 660.55781,37.188 659.85581,35.186 C659.02381,40.074 657.41181,43.896 655.04581,46.652 L652.99181,44.858 C653.38181,44.39 653.74581,43.896 654.10981,43.376 C651.87381,44.234 649.37781,44.936 646.59581,45.456 L646.23181,42.804 C649.32581,42.284 652.02981,41.608 654.36981,40.724 Z M664.24981,38.826 C665.44581,37.11 666.30381,35.16 666.79781,33.002 L663.20981,33.002 C663.65181,31.39 664.14581,29.05 664.71781,26.008 L660.53181,26.008 L660.53181,26.996 C660.53181,28.14 660.47981,29.258 660.42781,30.298 C661.10381,33.522 662.37781,36.382 664.24981,38.826 Z M650.75581,22.55 L653.35581,23.59 C652.10781,26.502 650.83381,28.92 649.53381,30.818 C650.41781,30.714 651.30181,30.61 652.21181,30.48 C652.67981,29.648 653.19981,28.738 653.71981,27.776 L656.08581,28.686 C653.90181,32.456 652.08181,35.238 650.59981,37.032 C652.15981,36.72 653.74581,36.33 655.35781,35.836 L655.35781,38.28 C652.49781,39.138 649.81981,39.71 647.27181,39.996 L646.56981,37.552 C647.03781,37.37 647.45381,37.11 647.79181,36.772 C648.57181,36.044 649.55981,34.744 650.72981,32.924 C649.53381,33.08 648.25981,33.262 646.95981,33.418 L646.30981,30.948 C646.72581,30.792 647.08981,30.454 647.42781,29.96 C648.70181,27.724 649.81981,25.254 650.75581,22.55 Z M682.493143,33.99 L681.895143,31.702 C682.129143,31.624 682.311143,31.546 682.441143,31.468 C683.299143,30.948 684.391143,29.596 685.717143,27.438 L681.817143,27.438 L681.817143,24.994 L688.655143,24.994 C688.343143,24.214 688.031143,23.486 687.693143,22.81 L690.449143,22.342 C690.761143,23.122 691.099143,24.006 691.411143,24.994 L697.989143,24.994 L697.989143,27.438 L688.525143,27.438 C687.563143,29.154 686.705143,30.48 685.951143,31.416 C688.395143,31.26 690.865143,31.026 693.309143,30.74 C692.841143,30.116 692.373143,29.518 691.905143,28.946 L694.089143,27.594 C695.909143,29.726 697.287143,31.598 698.249143,33.21 L695.987143,34.77 C695.623143,34.172 695.259143,33.548 694.843143,32.924 C691.047143,33.34 686.913143,33.704 682.493143,33.99 Z M677.423143,22.836 C678.983143,23.928 680.335143,25.046 681.427143,26.164 L679.503143,28.088 C678.567143,27.048 677.215143,25.904 675.473143,24.708 L677.423143,22.836 Z M676.799143,29.05 C678.411143,30.298 679.789143,31.572 680.881143,32.82 L678.957143,34.744 C677.995143,33.574 676.643143,32.3 674.875143,30.922 L676.799143,29.05 Z M678.697143,36.096 L681.089143,37.032 C680.101143,40.334 679.009143,43.454 677.813143,46.366 L675.317143,45.248 C676.617143,42.284 677.761143,39.216 678.697143,36.096 Z M687.485143,34.744 L690.241143,34.744 L690.241143,46.184 L687.485143,46.184 L687.485143,34.744 Z M683.221143,34.744 L685.873143,34.744 C685.769143,38.176 685.431143,40.698 684.859143,42.31 C684.235143,43.974 683.169143,45.456 681.687143,46.704 L679.971143,44.52 C681.115143,43.558 681.947143,42.414 682.415143,41.088 C682.857143,39.84 683.117143,37.708 683.221143,34.744 Z M696.143143,46.47 L695.077143,46.47 C693.205143,46.47 692.269143,45.664 692.269143,44.078 L692.269143,34.744 L694.843143,34.744 L694.843143,43.532 C694.843143,43.792 694.947143,43.948 695.155143,44 L696.013143,44 C696.325143,43.948 696.481143,43.584 696.507143,42.908 C696.559143,42.206 696.585143,41.244 696.585143,40.048 L698.951143,40.932 C698.951143,43.454 698.769143,44.988 698.405143,45.534 C698.067143,46.054 697.313143,46.366 696.143143,46.47 Z M705.780477,33.574 L724.448477,33.574 L724.448477,40.386 L716.414477,40.386 L716.414477,41.4 L724.942477,41.4 L724.942477,43.142 L716.414477,43.142 L716.414477,44.234 L726.814477,44.234 L726.814477,46.262 L703.362477,46.262 L703.362477,44.234 L713.710477,44.234 L713.710477,43.142 L705.286477,43.142 L705.286477,41.4 L713.710477,41.4 L713.710477,40.386 L705.780477,40.386 L705.780477,33.574 Z M721.874477,38.826 L721.874477,37.708 L716.414477,37.708 L716.414477,38.826 L721.874477,38.826 Z M713.710477,38.826 L713.710477,37.708 L708.354477,37.708 L708.354477,38.826 L713.710477,38.826 Z M708.354477,36.252 L713.710477,36.252 L713.710477,35.16 L708.354477,35.16 L708.354477,36.252 Z M716.414477,35.16 L716.414477,36.252 L721.874477,36.252 L721.874477,35.16 L716.414477,35.16 Z M706.352477,23.018 L723.902477,23.018 L723.902477,29.7 L706.352477,29.7 L706.352477,23.018 Z M721.302477,28.192 L721.302477,27.126 L708.952477,27.126 L708.952477,28.192 L721.302477,28.192 Z M708.952477,25.618 L721.302477,25.618 L721.302477,24.552 L708.952477,24.552 L708.952477,25.618 Z M703.362477,30.688 L726.814477,30.688 L726.814477,32.612 L703.362477,32.612 L703.362477,30.688 Z M734.39781,22.836 C735.93181,23.928 737.23181,25.046 738.32381,26.164 L736.39981,28.088 C735.46381,27.048 734.16381,25.904 732.47381,24.708 L734.39781,22.836 Z M733.59181,29.05 C735.25581,30.298 736.68581,31.572 737.82981,32.82 L735.90581,34.744 C734.91781,33.574 733.48781,32.3 731.66781,30.922 L733.59181,29.05 Z M735.43781,36.408 L737.82981,37.344 C736.84181,40.542 735.74981,43.558 734.50181,46.366 L732.00581,45.248 C733.33181,42.388 734.47581,39.424 735.43781,36.408 Z M745.44781,22.654 L748.09981,22.654 L748.09981,24.084 L754.70381,24.084 L754.70381,26.268 L748.09981,26.268 L748.09981,27.36 L753.71581,27.36 L753.71581,29.492 L748.09981,29.492 L748.09981,30.61 L755.43181,30.61 L755.43181,32.846 L738.19381,32.846 L738.19381,30.61 L745.44781,30.61 L745.44781,29.492 L740.09181,29.492 L740.09181,27.36 L745.44781,27.36 L745.44781,26.268 L739.02581,26.268 L739.02581,24.084 L745.44781,24.084 L745.44781,22.654 Z M742.89981,39.398 L742.89981,40.62 L750.69981,40.62 L750.69981,39.398 L742.89981,39.398 Z M750.69981,37.37 L750.69981,36.07 L742.89981,36.07 L742.89981,37.37 L750.69981,37.37 Z M742.89981,42.648 L742.89981,46.704 L740.37781,46.704 L740.37781,33.886 L753.29981,33.886 L753.29981,44.026 C753.29981,45.69 752.46781,46.548 750.80381,46.548 L748.41181,46.548 L747.76181,44.182 L750.04981,44.286 C750.46581,44.286 750.69981,44 750.69981,43.454 L750.69981,42.648 L742.89981,42.648 Z M762.573144,22.836 C764.133144,23.928 765.485144,25.046 766.577144,26.164 L764.653144,28.088 C763.717144,27.048 762.365144,25.904 760.623144,24.708 L762.573144,22.836 Z M761.949144,29.05 C763.561144,30.298 764.939144,31.572 766.031144,32.82 L764.107144,34.744 C763.145144,33.574 761.793144,32.3 760.025144,30.922 L761.949144,29.05 Z M763.509144,36.07 L765.953144,37.058 C764.991144,40.36 763.899144,43.48 762.703144,46.392 L759.973144,45.196 C761.325144,42.232 762.521144,39.19 763.509144,36.07 Z M770.503144,28.946 C770.035144,30.168 769.515144,31.286 768.943144,32.326 L766.473144,30.792 C767.825144,28.504 768.761144,26.086 769.307144,23.512 L771.907144,24.084 C771.725144,24.864 771.543144,25.618 771.361144,26.32 L773.883144,26.32 L773.883144,22.836 L776.639144,22.836 L776.639144,26.32 L782.047144,26.32 L782.047144,28.946 L776.639144,28.946 L776.639144,33.002 L783.243144,33.002 L783.243144,35.628 L779.005144,35.628 L779.005144,42.856 C779.005144,43.48 779.213144,43.792 779.655144,43.792 L780.175144,43.792 C780.435144,43.792 780.643144,43.662 780.851144,43.454 C781.033144,43.22 781.163144,41.972 781.267144,39.736 L783.763144,40.594 C783.503144,43.428 783.217144,45.066 782.853144,45.534 C782.437144,46.002 781.735144,46.236 780.747144,46.262 L778.771144,46.262 C777.965144,46.262 777.367144,46.002 776.977144,45.482 C776.561144,44.936 776.353144,44.286 776.353144,43.506 L776.353144,35.628 L773.831144,35.628 C773.727144,37.682 773.415144,39.476 772.895144,40.984 C772.115144,43.298 770.269144,45.222 767.357144,46.782 L765.537144,44.572 C767.981144,43.35 769.567144,41.868 770.295144,40.126 C770.763144,38.904 771.075144,37.396 771.179144,35.628 L766.733144,35.628 L766.733144,33.002 L773.883144,33.002 L773.883144,28.946 L770.503144,28.946 Z" id="T级流量清洗" fill="#005EFF"></path>
                <path d="M58.6320113,22.1638434 L72.2289791,34.6604785 L68.063434,39.2189995 L61.3042477,33.0099796 L61.3042477,54.5450615 C61.3042477,56.4837525 60.6099972,58.134235 59.2214752,59.4965584 C57.8329533,60.8588818 56.1693717,61.5400333 54.2306807,61.5400333 L11.2391121,61.5400333 L11.2391121,34.5032882 C10.0339798,35.4464351 8.7633703,36.402667 7.4272454,37.3720126 C6.0911205,38.3413581 4.6895203,39.2713919 3.22240277,40.1621418 L0,34.8962641 C3.35341152,32.852779 6.32689978,30.6783338 8.920554,28.3728634 C11.5142082,26.067393 13.7017524,23.9977403 15.4832523,22.1638434 L2.59364125,22.1638434 L2.59364125,15.9548235 L32.8527892,15.9548235 L32.8527892,9.6672083 L8.01670932,9.6672083 L8.01670932,3.53678352 L50.6938972,3.53678352 C52.9993676,3.53678352 55.1083174,3.32719845 57.0208099,2.90802201 C58.9333024,2.48884557 60.7540728,1.83389221 62.4831756,0.943142273 L65.3126024,6.44480553 C61.0160439,8.59308478 56.1431909,9.6672083 50.6938972,9.6672083 L39.0618091,9.6672083 L39.0618091,15.9548235 L69.3209571,15.9548235 L69.3209571,22.1638434 L58.6320113,22.1638434 Z M23.7357472,22.1638434 C22.8449973,23.2117845 21.6529821,24.5609884 20.1596661,26.2114957 C18.66635,27.8620029 16.8455797,29.6565751 14.6973004,31.5952661 L32.8527892,31.5952661 L32.8527892,22.1638434 L23.7357472,22.1638434 Z M55.0952278,37.7256909 L17.3695369,37.7256909 L17.3695369,43.4631397 L55.0952278,43.4631397 L55.0952278,37.7256909 Z M54.2306807,55.4096085 C54.8070483,55.4096085 55.0952278,55.1214291 55.0952278,54.5450615 L55.0952278,49.6721597 L17.3695369,49.6721597 L17.3695369,55.4096085 L54.2306807,55.4096085 Z M50.6938972,23.3427713 L51.7942298,22.1638434 L39.0618091,22.1638434 L39.0618091,31.5952661 L55.0952278,31.5952661 L55.0952278,30.1805527 L58.1604402,30.1805527 L50.6938972,23.3427713 Z M84.4898286,1.10033265 L97.3794397,11.3963025 L93.5282754,16.190609 L80.6386643,5.89463921 L84.4898286,1.10033265 Z M93.5282754,32.6955988 L80.6386643,22.399629 L84.4898286,17.6053224 L97.3794397,27.9012922 L93.5282754,32.6955988 Z M85.2757805,62.0116044 L79.8527124,58.9463921 L92.5065379,37.0183342 L97.8510108,40.1621418 L85.2757805,62.0116044 Z M149.566645,25.9364125 L142.021507,25.9364125 L150.116812,35.8394064 L145.322505,39.7691658 L139.585056,32.6955988 L139.585056,41.7340456 C139.585056,43.7251337 138.890806,45.4018143 137.502284,46.7641377 C136.113762,48.1264611 134.45018,48.8076126 132.511489,48.8076126 L111.526574,48.8076126 L111.526574,55.8025845 L140.371008,55.8025845 C140.947376,55.8025845 141.235555,55.514405 141.235555,54.9380374 L141.235555,50.1437308 L147.444575,50.1437308 L147.444575,54.9380374 C147.444575,56.8767284 146.750325,58.54031 145.361803,59.9288319 C143.973281,61.3173539 142.309699,62.0116044 140.371008,62.0116044 L105.317554,62.0116044 L105.317554,36.939739 C104.112422,38.1448713 103.090694,39.1011032 102.252341,39.8084634 C101.413989,40.5158237 100.942422,40.9218948 100.837628,41.0266889 L96.9078685,36.1537871 C96.9602656,36.1537871 97.3270395,35.8656076 98.0082012,35.28924 C98.6893629,34.7128724 99.5146041,33.9531265 100.48395,33.0099796 C101.453295,32.0668326 102.51432,30.992709 103.667055,29.7875768 C104.81979,28.5824445 105.867715,27.2987359 106.810862,25.9364125 L97.2222493,25.9364125 L97.2222493,19.8059877 L108.618552,19.8059877 L108.618552,13.1253966 L100.444652,13.1253966 L100.444652,6.99497186 L108.618552,6.99497186 L108.618552,1.17892784 L114.748977,1.17892784 L114.748977,6.99497186 L131.961323,6.99497186 L131.961323,1.17892784 L138.170343,1.17892784 L138.170343,6.99497186 L146.344243,6.99497186 L146.344243,13.1253966 L138.170343,13.1253966 L138.170343,19.8059877 L149.566645,19.8059877 L149.566645,25.9364125 Z M114.748977,19.8059877 L131.961323,19.8059877 L131.961323,13.1253966 L114.748977,13.1253966 L114.748977,19.8059877 Z M132.511489,42.5985927 C133.087857,42.5985927 133.376036,42.3104132 133.376036,41.7340456 L133.376036,37.6470957 L111.526574,37.6470957 L111.526574,42.5985927 L132.511489,42.5985927 Z M134.083393,25.9364125 L114.04162,25.9364125 C113.517649,26.9319565 112.954389,27.8881885 112.351823,28.8051369 C111.749257,29.7220854 111.081205,30.625921 110.347646,31.516671 L133.376036,31.516671 L133.376036,30.3377431 L137.620177,30.3377431 L134.083393,25.9364125 Z M218.337436,22.4782242 C218.337436,24.4169152 217.643186,26.0804967 216.254664,27.4690187 C214.866142,28.8575407 213.20256,29.5517912 211.263869,29.5517912 L168.272301,29.5517912 L168.272301,13.9113485 L212.128416,13.9113485 L212.128416,12.8110159 L218.337436,12.8110159 L218.337436,22.4782242 Z M212.128416,20.1203685 L174.48132,20.1203685 L174.48132,23.3427713 L211.263869,23.3427713 C211.840237,23.3427713 212.128416,23.0545918 212.128416,22.4782242 L212.128416,20.1203685 Z M212.364202,50.8510875 C212.364202,52.8421756 211.669951,54.5188562 210.281429,55.8811797 C208.892907,57.2435031 207.229326,57.9246546 205.290635,57.9246546 L174.245535,57.9246546 L174.245535,41.5768552 L206.155182,41.5768552 L206.155182,40.4765225 L212.364202,40.4765225 L212.364202,50.8510875 Z M180.454555,51.7942298 L205.290635,51.7942298 C205.867002,51.7942298 206.155182,51.4798522 206.155182,50.8510875 L206.155182,47.7858752 L180.454555,47.7858752 L180.454555,51.7942298 Z M227.690264,11.5534928 L158.919473,11.5534928 L158.919473,5.34447288 L190.82912,5.34447288 L189.571597,3.37959314 L194.758879,0 L198.138473,5.34447288 L227.690264,5.34447288 L227.690264,11.5534928 Z M162.456257,32.4598132 L217.94446,32.4598132 L217.94446,31.0450998 L224.15348,31.0450998 L224.15348,55.0166326 C224.15348,57.0077207 223.472329,58.6844013 222.110005,60.0467247 C220.747682,61.4090481 219.071001,62.0901996 217.079913,62.0901996 L211.73544,62.0901996 L211.73544,55.9597749 L217.079913,55.9597749 C217.341898,55.9597749 217.551484,55.8680814 217.708675,55.6846917 C217.865866,55.501302 217.94446,55.2786179 217.94446,55.0166326 L217.94446,38.6688332 L168.665276,38.6688332 L168.665276,61.8544141 L162.456257,61.8544141 L162.456257,32.4598132 Z M287.422608,9.19563716 L306.757024,9.19563716 L306.757024,15.3260619 L276.340686,15.3260619 L276.340686,22.7140097 L296.69684,22.7140097 L296.69684,21.2207011 L302.827265,21.2207011 L302.827265,54.7022518 C302.827265,56.6933399 302.146113,58.3700205 300.78379,59.732344 C299.421466,61.0946674 297.744786,61.7758189 295.753698,61.7758189 L289.308892,61.7758189 L289.308892,55.6453941 L295.753698,55.6453941 C296.015683,55.6453941 296.238367,55.5537006 296.421757,55.3703109 C296.605147,55.1869212 296.69684,54.9642371 296.69684,54.7022518 L296.69684,28.9230297 L276.340686,28.9230297 L276.340686,32.4598132 C276.340686,34.8700778 276.065606,37.254108 275.515436,39.6119755 C274.965267,41.9698429 274.271017,44.2228825 273.432664,46.3711618 C272.594311,48.519441 271.677376,50.5235983 270.681832,52.3836937 C269.686288,54.2437892 268.756255,55.8549745 267.891703,57.2172979 C267.027152,58.5796213 266.293604,59.6668439 265.691038,60.4789983 C265.088472,61.2911526 264.734797,61.74962 264.630003,61.8544141 L259.835696,58.081845 C259.835696,58.0294479 260.097678,57.662674 260.621648,56.9815123 C261.145619,56.3003506 261.787473,55.3441187 262.54723,54.1127879 C263.306988,52.8814571 264.132229,51.4536588 265.022979,49.8293501 C265.913729,48.2050414 266.752069,46.4497664 267.538025,44.5634724 C268.323981,42.6771784 268.965835,40.6992193 269.463607,38.6295356 C269.961379,36.5598519 270.210261,34.5032984 270.210261,32.4598132 L270.210261,15.3260619 L262.350742,15.3260619 L262.350742,9.19563716 L281.920944,9.19563716 L278.305566,4.24414023 L283.335658,0.550166326 L288.837321,8.1738997 L287.422608,9.19563716 Z M237.986234,3.37959314 L260.543053,3.37959314 L260.543053,13.4397774 L255.04139,25.8578173 C255.512963,26.6437731 256.063124,27.7047976 256.691889,29.0409225 C257.320653,30.3770474 257.92321,32.0275299 258.499578,33.9924194 C259.075946,35.957309 259.560611,38.2365467 259.953589,40.8302009 C260.346567,43.4238551 260.543053,46.3449471 260.543053,49.5935645 L260.543053,52.6587769 L246.002943,52.6587769 L246.002943,46.4497569 L254.255438,46.4497569 C254.098247,43.3059336 253.744572,40.5813277 253.194403,38.2758572 C252.644234,35.9703868 252.080974,34.0841211 251.504606,32.6170036 C250.928239,31.1498861 250.391177,30.0495644 249.893405,29.3160056 L249.14675,28.215673 L247.889227,26.7223644 L254.334033,12.1036592 L254.334033,9.58861311 L244.195253,9.58861311 L244.195253,61.3828429 L237.986234,61.3828429 L237.986234,3.37959314 Z M317.760351,61.5400333 L315.088114,60.1253199 L315.716876,58.5927137 C316.136052,57.5709711 316.59452,56.0383803 317.092292,53.9948951 C317.590064,51.95141 318.048531,49.3708937 318.467707,46.253269 C318.886884,43.1356442 319.096469,39.4286082 319.096469,35.1320497 L319.096469,2.82942682 L339.216837,2.82942682 L339.216837,1.41471341 L345.425857,1.41471341 L345.425857,54.8594422 C345.425857,56.8505303 344.744706,58.5272109 343.382383,59.8895343 C342.020059,61.2518578 340.343378,61.9330093 338.35229,61.9330093 L333.007818,61.9330093 L333.007818,55.8025845 L338.35229,55.8025845 C338.928658,55.8025845 339.216837,55.4882069 339.216837,54.8594422 L339.216837,42.755783 L324.991108,42.755783 C324.729123,46.1615916 324.362349,49.1219808 323.890776,51.6370394 C323.419202,54.1520981 322.934537,56.2348498 322.436765,57.885357 C321.938993,59.5358642 321.506723,60.7933747 321.139944,61.6579261 C320.773165,62.5224775 320.563579,62.9809449 320.511182,63.0333419 L317.760351,61.5400333 Z M339.216837,36.5467631 L339.216837,25.1504606 L325.305489,25.1504606 L325.305489,36.5467631 L339.216837,36.5467631 Z M325.305489,8.95985159 L325.305489,18.9414406 L339.216837,18.9414406 L339.216837,8.95985159 L325.305489,8.95985159 Z M385.587999,57.5316786 L381.422454,62.0901996 L370.733508,52.5015865 C369.004406,54.1782923 367.052645,55.8549729 364.878167,57.5316786 C362.703689,59.2083844 360.254163,60.8588669 357.529517,62.4831756 L354.307114,57.1387027 C356.717378,55.7239822 358.904923,54.2699858 360.869812,52.7766697 C362.834702,51.2833536 364.576878,49.803159 366.096392,48.3360415 L357.686707,40.7909033 L361.852252,36.2323823 L370.419128,43.9347109 C372.410216,41.6816375 373.916609,39.7167774 374.938351,38.0400717 C375.960094,36.3633659 376.628146,35.1844499 376.942528,34.5032882 L376.942528,33.9531218 L354.149923,33.9531218 L354.149923,62.1687948 L348.019499,62.1687948 L348.019499,2.75083163 L378.278647,2.75083163 L378.278647,1.25752303 L384.487667,1.25752303 L384.487667,15.7190379 C384.487667,17.710126 383.793416,19.3868066 382.404894,20.74913 C381.016372,22.1114534 379.352791,22.7926049 377.4141,22.7926049 L363.659941,22.7926049 L363.659941,16.583585 L377.4141,16.583585 C377.990467,16.583585 378.278647,16.2954055 378.278647,15.7190379 L378.278647,8.95985159 L354.149923,8.95985159 L354.149923,27.7441019 L376.942528,27.7441019 L376.942528,26.4865788 L383.151548,26.4865788 L383.151548,35.8394064 L382.915763,36.3895727 C382.863366,36.4943668 382.693078,36.8611407 382.404894,37.4899053 C382.11671,38.11867 381.658243,38.9570103 381.029478,40.0049514 C380.400714,41.0528925 379.60167,42.2711058 378.632325,43.6596277 C377.662979,45.0481497 376.470964,46.5283443 375.056244,48.1002559 L385.587999,57.5316786 Z M396.512731,55.5667989 C396.565128,55.5667989 397.220081,55.3572138 398.47761,54.9380374 C399.73514,54.518861 401.241532,53.8770067 402.996834,53.0124553 C404.752135,52.1479039 406.572905,51.0213841 408.459199,49.6328621 C410.345493,48.2443402 411.917381,46.5545605 413.174911,44.5634724 L398.399015,44.5634724 L398.399015,38.3544524 L415.218386,38.3544524 L415.218386,34.031717 L421.34881,34.031717 L421.34881,38.3544524 L453.730028,38.3544524 L453.730028,36.939739 L459.860453,36.939739 L459.860453,55.173823 C459.860453,57.112514 459.179302,58.7760955 457.816978,60.1646175 C456.454655,61.5531394 454.777974,62.24739 452.786886,62.24739 L443.041083,62.24739 L443.041083,56.03837 L452.786886,56.03837 C453.048871,56.03837 453.271556,55.9597756 453.454945,55.8025845 C453.638335,55.6453933 453.730028,55.4358082 453.730028,55.173823 L453.730028,44.5634724 L420.091287,44.5634724 C419.200537,46.6069575 418.074018,48.453926 416.711694,50.1044332 C415.349371,51.7549405 413.869176,53.2089369 412.271066,54.4664663 C410.672956,55.7239956 409.061771,56.78502 407.437462,57.6495714 C405.813153,58.5141228 404.332959,59.2345715 402.996834,59.8109391 C401.660709,60.3873067 400.534189,60.819576 399.617241,61.1077598 C398.700292,61.3959436 398.189428,61.5400333 398.084634,61.5400333 L396.512731,55.5667989 Z M458.052764,14.2257293 C457.94797,14.3305234 457.568097,14.644901 456.913134,15.1688716 C456.25817,15.6928421 455.288839,16.3870927 454.005112,17.2516441 C452.721384,18.1161955 451.110199,19.0986255 449.171507,20.1989637 C447.232816,21.2993018 444.927381,22.4258216 442.255131,23.5785568 L465.126331,28.6086489 L463.868808,34.6604785 L431.723375,27.5869115 C426.955243,29.1588231 421.506031,30.5997205 415.375576,31.9096469 C409.245121,33.2195733 402.276417,34.2413005 394.469256,34.9748593 L393.840494,28.8444345 C398.71342,28.4252581 403.219499,27.8619982 407.358867,27.1546379 C411.498234,26.4472777 415.323162,25.6744327 418.833764,24.8360799 L405.551177,21.9280578 L406.887296,15.8762283 L431.330399,21.2207011 C433.059502,20.6443335 434.657588,20.0679746 436.124706,19.491607 C437.591824,18.9152394 438.927928,18.3388804 440.133061,17.7625128 C442.333737,16.7669688 444.246201,15.8238359 445.87051,14.933086 C447.494818,14.0423361 448.857121,13.2301939 449.957459,12.4966351 L407.987628,12.4966351 C407.096878,13.8065615 406.035854,15.1295673 404.804523,16.4656922 C403.573192,17.8018171 402.19779,19.0986247 400.678276,20.3561541 L396.748516,15.4832523 C398.687207,13.9113407 400.324591,12.2739573 401.660715,10.571053 C402.99684,8.86814869 404.070964,7.29626062 404.883118,5.85534161 C405.695273,4.4144226 406.271632,3.22240748 406.612212,2.27926049 L407.123081,0.864547084 L413.01772,2.59364125 C413.01772,2.69843536 412.899829,3.07830831 412.664042,3.7332715 C412.428255,4.38823468 412.07458,5.23967405 411.603007,6.28761515 L452.865481,6.28761515 L452.865481,5.1872825 L458.995906,5.1872825 L458.995906,13.282587 L458.052764,14.2257293 Z M505.760044,16.0334186 C505.760044,17.9721097 505.078892,19.6225921 503.716569,20.9849156 C502.354246,22.347239 500.677565,23.0283905 498.686477,23.0283905 L478.487513,23.0283905 L478.487513,3.45818833 L499.551024,3.45818833 L499.551024,2.04347492 L505.760044,2.04347492 L505.760044,16.0334186 Z M484.696533,16.8979657 L498.686477,16.8979657 C499.262844,16.8979657 499.551024,16.6097862 499.551024,16.0334186 L499.551024,9.58861311 L484.696533,9.58861311 L484.696533,16.8979657 Z M472.750064,38.5116428 C476.051079,37.9876723 479.103161,37.3196198 481.906404,36.5074655 C484.709646,35.6953111 487.290163,34.8176736 489.64803,33.8745266 L473.771802,33.8745266 L473.771802,27.6655067 L501.358713,27.6655067 C503.506992,26.2507862 505.09198,25.0587711 506.113722,24.0894256 C507.135465,23.12008 507.672527,22.6092164 507.724924,22.5568194 L512.283445,26.7223644 L511.340302,27.6655067 L524.308509,27.6655067 L523.443961,26.565174 L528.002482,23.0283905 L509.925589,23.0283905 L509.925589,3.45818833 L530.9891,3.45818833 L530.9891,2.04347492 L537.119524,2.04347492 L537.119524,16.0334186 C537.119524,17.9721097 536.438373,19.6225921 535.07605,20.9849156 C533.713726,22.347239 532.037045,23.0283905 530.045957,23.0283905 L528.552649,23.0283905 L532.168027,27.6655067 L541.835236,27.6655067 L541.835236,33.8745266 L529.967362,33.8745266 L542.621188,38.4330476 L540.577713,44.2490916 L536.962334,42.9129734 L536.962334,55.2524182 C536.962334,57.2435062 536.268083,58.9201868 534.879562,60.2825103 C533.49104,61.6448337 531.827458,62.3259852 529.888767,62.3259852 L510.23997,62.3259852 L510.23997,42.9915686 L530.753314,42.9915686 L530.753314,41.5768552 L533.189765,41.5768552 L515.112871,35.1320497 L515.584443,33.8745266 L503.244998,33.8745266 C500.729939,35.4464383 497.690956,37.0576236 494.127956,38.7081308 C490.564956,40.358638 486.399453,41.7864363 481.631321,42.9915686 L499.000858,42.9915686 L499.000858,41.5768552 L505.209878,41.5768552 L505.209878,55.2524182 C505.209878,57.2435062 504.515627,58.9201868 503.127105,60.2825103 C501.738583,61.6448337 500.075002,62.3259852 498.13631,62.3259852 L478.487513,62.3259852 L478.487513,43.7775205 C477.753954,43.9347117 476.994208,44.0919005 476.208253,44.2490916 C475.422297,44.4062828 474.610155,44.5372735 473.771802,44.6420676 L472.750064,38.5116428 Z M484.696533,56.1955604 L498.13631,56.1955604 C498.712678,56.1955604 499.000858,55.8811828 499.000858,55.2524182 L499.000858,49.2005886 L484.696533,49.2005886 L484.696533,56.1955604 Z M530.753314,49.2005886 L516.44899,49.2005886 L516.44899,56.1955604 L529.888767,56.1955604 C530.465135,56.1955604 530.753314,55.8811828 530.753314,55.2524182 L530.753314,49.2005886 Z M516.056014,16.8979657 L530.045957,16.8979657 C530.674722,16.8979657 530.9891,16.6097862 530.9891,16.0334186 L530.9891,9.58861311 L516.056014,9.58861311 L516.056014,16.8979657 Z" id="香港高防服务器" fill="#FFFFFF"></path>
                <path d="M91,137.2 L39.4,137.2 L39.4,129.3 L61.3,129.3 L61.3,126.2 L45.2,126.2 L45.2,118.4 L61.3,118.4 L61.3,115.2 L40.7,115.2 L40.7,107.4 L61.3,107.4 L61.3,103.8 L69.2,103.8 L69.2,107.4 L89.8,107.4 L89.8,115.2 L69.2,115.2 L69.2,118.4 L85.3,118.4 L85.3,126.2 L69.2,126.2 L69.2,129.3 L91,129.3 L91,137.2 Z M78.6,172.3 C79.333337,172.3 79.7,171.933337 79.7,171.2 L79.7,170.2 L50.7,170.2 L50.7,179.9 L42.9,179.9 L42.9,140.6 L79.7,140.6 L79.7,139.1 L87.6,139.1 L87.6,171.2 C87.6,173.666679 86.733342,175.783324 85,177.55 C83.266658,179.316676 81.133346,180.2 78.6,180.2 L75.3,180.2 L75.3,172.3 L78.6,172.3 Z M50.7,148.4 L50.7,151.2 L79.7,151.2 L79.7,148.4 L50.7,148.4 Z M79.7,162.3 L79.7,159.1 L50.7,159.1 L50.7,162.3 L79.7,162.3 Z M9.3,129.1 L4.5,109 L12.1,107.1 L17,127.3 L9.3,129.1 Z M39.2,109 L34.4,129.1 L26.7,127.3 L31.6,107.1 L39.2,109 Z M17.9,179.7 L17.9,139.4 L17.6,139.4 C17.399999,140.866674 17.100002,143.099985 16.7,146.1 C16.299998,149.100015 15.7833365,152.466648 15.15,156.2 C14.5166635,159.933352 13.7500045,163.84998 12.85,167.95 C11.9499955,172.050021 10.900006,175.966648 9.7,179.7 L2.2,177.3 C3.266672,173.96665 4.2166625,170.416685 5.05,166.65 C5.8833375,162.883314 6.6166635,159.266684 7.25,155.8 C7.8833365,152.333316 8.399998,149.150014 8.8,146.25 C9.200002,143.349986 9.499999,141.066675 9.7,139.4 L5,139.4 L5,131.5 L17.9,131.5 L17.9,103.3 L25.8,103.3 L25.8,131.5 L37.2,131.5 L37.2,139.4 L25.8,139.4 L25.8,179.7 L17.9,179.7 Z M32.3,179.2 L26.9,143.7 L34.7,142.5 L40,178 L32.3,179.2 Z M110,108 L123.5,127.1 L117.1,131.7 L103.6,112.5 L110,108 Z M109.9,179.1 L103.3,174.9 L120.3,148 L126.9,152.2 L109.9,179.1 Z M168.1,122.5 L168.1,131.7 L187.9,131.7 L187.9,139.6 L168.1,139.6 L168.1,150.6 L187.9,150.6 L187.9,158.5 L168.1,158.5 L168.1,171 L189.5,171 L189.5,178.8 L140.8,178.8 L140.8,180.3 L132.9,180.3 L132.8,130.8 C131.333326,132.933344 130.116671,134.61666 129.15,135.85 C128.183329,137.083339 127.633334,137.766666 127.5,137.9 L121.6,132.7 L123.35,130.5 C124.516673,129.033326 125.899992,127.033346 127.5,124.5 C129.100008,121.966654 130.783325,118.916684 132.55,115.35 C134.316676,111.783316 135.833327,107.900021 137.1,103.7 L144.7,105.9 C144.166664,107.433341 143.650003,108.933326 143.15,110.4 C142.649998,111.866674 142.100003,113.26666 141.5,114.6 L159.6,114.6 L154.8,107 L161.4,102.8 L167.9,113.1 L165.5,114.6 L190.3,114.6 L190.3,122.5 L168.1,122.5 Z M160.2,158.5 L140.7,158.5 L140.8,171 L160.2,171 L160.2,158.5 Z M160.2,139.6 L140.7,139.6 L140.7,150.6 L160.2,150.6 L160.2,139.6 Z M160.2,122.5 L140.7,122.5 L140.7,131.7 L160.2,131.7 L160.2,122.5 Z M280.2,104.9 L288.1,104.9 L288.1,135.9 C288.1,138.433346 287.233342,140.566658 285.5,142.3 C283.766658,144.033342 281.633346,144.9 279.1,144.9 L237.5,144.9 L237.5,107.4 L280.2,107.4 L280.2,104.9 Z M280.2,115.3 L245.3,115.3 L245.3,137 L279.1,137 C279.833337,137 280.2,136.633337 280.2,135.9 L280.2,115.3 Z M275.1,149.4 L290.4,176.6 L283.5,180.5 L268.2,153.3 L275.1,149.4 Z M231.8,174.7 L233.3,172.9 C234.300005,171.699994 235.549993,170.000011 237.05,167.8 C238.550008,165.599989 240.216658,162.950016 242.05,159.85 C243.883343,156.749985 245.633325,153.300019 247.3,149.5 L254.5,152.7 C252.699991,156.833354 250.816677,160.549983 248.85,163.85 C246.883324,167.150016 245.100008,169.966655 243.5,172.3 C241.899992,174.633345 240.550006,176.46666 239.45,177.8 C238.349995,179.13334 237.766667,179.833333 237.7,179.9 L234.8,177.3 L231.8,174.7 Z M227.2,118.9 L205.8,109.8 L208.9,102.6 L230.3,111.7 L227.2,118.9 Z M203.4,121.1 L222.9,121.1 L222.9,164.2 L229.7,161.1 L233,168.2 L207.4,180 L204.1,172.9 L215,167.9 L215,128.9 L203.4,128.9 L203.4,121.1 Z M374.5,110.7 L374.5,165.3 L366.7,165.3 L366.7,110.7 L374.5,110.7 Z M391,171.7 C391,174.166679 390.116676,176.283324 388.35,178.05 C386.583325,179.816676 384.466679,180.7 382,180.7 L366.3,180.7 L366.3,172.8 L382,172.8 C382.733337,172.8 383.1,172.433337 383.1,171.7 L383.1,103.1 L391,103.1 L391,171.7 Z M350.2,105.2 L350.2,103.4 L358.1,103.4 L358.1,123.9 C358.1,126.366679 357.233342,128.466658 355.5,130.2 C353.766658,131.933342 351.633346,132.8 349.1,132.8 L306.8,132.8 L306.8,105.2 L350.2,105.2 Z M350.2,113.1 L314.7,113.1 L314.7,125 L349.1,125 C349.833337,125 350.2,124.633337 350.2,123.9 L350.2,113.1 Z M302,173.4 L303.05,172.65 C303.750004,172.149997 304.633328,171.433338 305.7,170.5 C306.766672,169.566662 307.933327,168.450007 309.2,167.15 C310.466673,165.849994 311.683328,164.383342 312.85,162.75 C314.016673,161.116658 315.066662,159.350009 316,157.45 C316.933338,155.549991 317.566665,153.533344 317.9,151.4 L317.9,148.2 L304.9,148.2 L304.9,140.3 L317.9,140.3 L317.9,135.9 L325.8,135.9 L325.8,140.3 L351.3,140.3 L351.3,138.8 L359.2,138.8 L359.2,171.6 C359.2,174.133346 358.316675,176.266658 356.55,178 C354.783324,179.733342 352.666679,180.6 350.2,180.6 L335.6,180.6 L335.6,172.8 L350.2,172.8 C350.933337,172.8 351.3,172.400004 351.3,171.6 L351.3,148.2 L325.8,148.2 L325.8,152.3 C325.199997,156.366687 323.866677,160.083316 321.8,163.45 C319.733323,166.816684 317.583345,169.699988 315.35,172.1 C313.116655,174.500012 311.100009,176.383327 309.3,177.75 C307.499991,179.116673 306.500001,179.866666 306.3,180 L304.1,176.7 L302,173.4 Z M402.6,169.6 L416.6,165.8 L416.6,118.1 L404.3,118.1 L404.3,110.3 L436.8,110.3 L436.8,118.1 L424.5,118.1 L424.5,163.7 L437.2,160.3 L439.2,167.9 L404.7,177.2 L402.6,169.6 Z M437.4,173.7 C437.466667,173.7 438.183327,173.266671 439.55,172.4 C440.916674,171.533329 442.683323,170.333341 444.85,168.8 C447.016678,167.266659 449.43332,165.416677 452.1,163.25 C454.76668,161.083323 457.466653,158.66668 460.2,156 L445.1,140.9 L450.6,135.4 L465.6,150.3 C468.533348,147.033317 471.083323,143.566685 473.25,139.9 C475.416678,136.233315 476.899996,132.433353 477.7,128.5 L477.7,121.1 L451.2,121.1 C450.466663,123.033343 449.583339,124.99999 448.55,127 C447.516662,129.00001 446.33334,130.966657 445,132.9 L438.5,128.5 C440.433343,125.699986 442.016661,122.800015 443.25,119.8 C444.48334,116.799985 445.449997,114.050012 446.15,111.55 C446.850004,109.049988 447.333332,107.000008 447.6,105.4 C447.866668,103.799992 448,102.966667 448,102.9 L455.8,103.8 C455.8,103.933334 455.666668,104.866658 455.4,106.6 C455.133332,108.333342 454.633337,110.53332 453.9,113.2 L489.4,113.2 L489.4,121.1 L485.5,121.1 L485.5,129.6 C484.566662,134.466691 482.800013,139.099978 480.2,143.5 C477.599987,147.900022 474.600017,152.033314 471.2,155.9 L490.7,175.4 L485.2,181 L465.8,161.6 C462.933319,164.400014 460.100014,166.933322 457.3,169.2 C454.499986,171.466678 451.950012,173.416658 449.65,175.05 C447.349989,176.683341 445.450008,177.966662 443.95,178.9 C442.449993,179.833338 441.600001,180.366666 441.4,180.5 L437.4,173.7 Z M551,143.5 L551,173 L576.3,173 C577.100004,173 577.5,172.633337 577.5,171.9 L577.5,149 L585.3,149 L585.3,171.9 C585.3,174.366679 584.433342,176.466658 582.7,178.2 C580.966658,179.933342 578.833346,180.8 576.3,180.8 L508.9,180.8 L508.9,149 L516.7,149 L516.7,173 L543.2,173 L543.2,143.5 L502.5,143.5 L502.5,135.6 L543.2,135.6 L543.2,119.4 L508,119.5 L508,111.6 L543.2,111.6 L543.2,103.2 L551,103.2 L551,111.6 L586.2,111.6 L586.2,119.4 L551,119.4 L551,135.6 L591.7,135.6 L591.7,143.5 L551,143.5 Z M655.2,142.2 L655.2,134.3 C657.733346,134.3 659.849991,134.083336 661.55,133.65 C663.250009,133.216665 664.733327,132.533338 666,131.6 C668.733347,129.533323 670.199999,127.000015 670.4,124 C670.600001,121.199986 669.600011,118.633345 667.4,116.3 C666.199994,115.099994 664.783342,114.150003 663.15,113.45 C661.516658,112.749996 659.833342,112.35 658.1,112.25 C656.366658,112.149999 654.650009,112.333331 652.95,112.8 C651.249991,113.266669 649.700007,114.033328 648.3,115.1 C646.099989,116.700008 644.733336,118.699988 644.2,121.1 L636.5,119.3 C637.500005,115.099979 639.833315,111.633347 643.5,108.9 C645.633344,107.299992 647.98332,106.11667 650.55,105.35 C653.116679,104.583329 655.799986,104.266666 658.6,104.4 C661.400014,104.600001 664.033321,105.233328 666.5,106.3 C668.966679,107.366672 671.133324,108.833324 673,110.7 C674.866676,112.633343 676.249995,114.799988 677.15,117.2 C678.050005,119.600012 678.400001,122.066654 678.2,124.6 C678.066666,127.200013 677.350007,129.633322 676.05,131.9 C674.749994,134.166678 673.000011,136.133325 670.8,137.8 C669.46666,138.800005 668.116673,139.599997 666.75,140.2 C665.383327,140.800003 664.016674,141.249999 662.65,141.55 C661.283327,141.850002 659.966673,142.033333 658.7,142.1 C657.433327,142.166667 656.266672,142.2 655.2,142.2 Z M657.2,176.9 C654.466653,176.9 651.833346,176.483338 649.3,175.65 C646.766654,174.816663 644.433344,173.633341 642.3,172.1 C639.699987,170.166657 637.633341,167.86668 636.1,165.2 C634.566659,162.53332 633.733334,159.700015 633.6,156.7 L641.5,156.3 C641.566667,158.166676 642.066662,159.899992 643,161.5 C643.933338,163.100008 645.233325,164.533327 646.9,165.8 C648.566675,167.000006 650.433323,167.866664 652.5,168.4 C654.566677,168.933336 656.616657,169.116668 658.65,168.95 C660.683344,168.783333 662.666657,168.283338 664.6,167.45 C666.533343,166.616663 668.199993,165.466674 669.6,164 C672.200013,161.33332 673.333335,158.233351 673,154.7 C672.866666,152.966658 672.333338,151.300008 671.4,149.7 C670.466662,148.099992 669.200008,146.733339 667.6,145.6 C666.066659,144.466661 664.233344,143.61667 662.1,143.05 C659.966656,142.48333 657.666679,142.2 655.2,142.2 L647.1,142.2 L647.1,134.3 L655.2,134.3 C658.53335,134.3 661.649986,134.733329 664.55,135.6 C667.450014,136.466671 669.999989,137.699992 672.2,139.3 C674.733346,141.166676 676.733326,143.349987 678.2,145.85 C679.666674,148.350012 680.533332,151.066652 680.8,154 C681.133335,156.866681 680.816671,159.616653 679.85,162.25 C678.883329,164.883347 677.333344,167.266656 675.2,169.4 C673.19999,171.533344 670.833347,173.233327 668.1,174.5 C665.366653,175.766673 662.433349,176.533332 659.3,176.8 C658.966665,176.8 658.616668,176.816666 658.25,176.85 C657.883332,176.883333 657.533335,176.9 657.2,176.9 Z M724.1,176.6 L716.3,176.6 L716.3,117.6 L708,125.2 L702.7,119.4 L716.2,107 L724.1,107 L724.1,176.6 Z M776.3,177.1 C772.766649,177.1 769.600014,176.266675 766.8,174.6 C763.999986,172.933325 761.616676,170.550016 759.65,167.45 C757.683323,164.349985 756.166672,160.600022 755.1,156.2 C754.033328,151.799978 753.5,146.833361 753.5,141.3 C753.5,136.433309 753.949995,131.95002 754.85,127.85 C755.750004,123.749979 757.066658,120.100016 758.8,116.9 C760.866677,113.233315 763.399985,110.416676 766.4,108.45 C769.400015,106.483323 772.699982,105.5 776.3,105.5 C779.833351,105.5 783.016652,106.333325 785.85,108 C788.683347,109.666675 791.083323,112.049984 793.05,115.15 C795.016676,118.250016 796.533328,121.999978 797.6,126.4 C798.666672,130.800022 799.2,135.766639 799.2,141.3 C799.2,146.63336 798.650006,151.499978 797.55,155.9 C796.449994,160.300022 794.90001,164.066651 792.9,167.2 C790.89999,170.333349 788.483347,172.766658 785.65,174.5 C782.816653,176.233342 779.700017,177.1 776.3,177.1 Z M776.3,113.4 C773.699987,113.4 771.466676,114.199992 769.6,115.8 C767.733324,117.400008 766.18334,119.516653 764.95,122.15 C763.716661,124.783346 762.800003,127.76665 762.2,131.1 C761.599997,134.43335 761.3,137.833316 761.3,141.3 C761.3,144.700017 761.566664,148.049983 762.1,151.35 C762.633336,154.650016 763.499994,157.63332 764.7,160.3 C765.900006,162.96668 767.449991,165.116658 769.35,166.75 C771.25001,168.383342 773.566653,169.2 776.3,169.2 C778.900013,169.2 781.149991,168.383342 783.05,166.75 C784.95001,165.116658 786.516661,162.96668 787.75,160.3 C788.98334,157.63332 789.899997,154.650016 790.5,151.35 C791.100003,148.049983 791.4,144.700017 791.4,141.3 C791.4,137.899983 791.133336,134.550016 790.6,131.25 C790.066664,127.949984 789.200006,124.96668 788,122.3 C786.799994,119.63332 785.25001,117.483341 783.35,115.85 C781.449991,114.216659 779.100014,113.4 776.3,113.4 Z M841.2,176 C837.19998,176 833.433351,175.116675 829.9,173.35 C826.366649,171.583325 823.283346,169.150015 820.65,166.05 C818.016654,162.949984 815.933341,159.35002 814.4,155.25 C812.866659,151.14998 812.1,146.733357 812.1,142 C812.1,137.33331 812.866659,132.933354 814.4,128.8 C815.933341,124.666646 818.016654,121.066682 820.65,118 C823.283346,114.933318 826.366649,112.500009 829.9,110.7 C833.433351,108.899991 837.19998,108 841.2,108 C845.86669,108 850.216647,109.166655 854.25,111.5 C858.283353,113.833345 861.699986,117.166645 864.5,121.5 L857.9,125.8 C855.833323,122.599984 853.366681,120.150008 850.5,118.45 C847.633319,116.749991 844.53335,115.9 841.2,115.9 C838.266652,115.9 835.51668,116.583326 832.95,117.95 C830.38332,119.316673 828.133343,121.183322 826.2,123.55 C824.266657,125.916678 822.750006,128.683317 821.65,131.85 C820.549994,135.016683 820,138.399982 820,142 C820,145.600018 820.549994,148.983317 821.65,152.15 C822.750006,155.316683 824.266657,158.099988 826.2,160.5 C828.133343,162.900012 830.38332,164.783326 832.95,166.15 C835.51668,167.516673 838.266652,168.2 841.2,168.2 C844.333349,168.2 847.283319,167.416674 850.05,165.85 C852.81668,164.283325 855.233323,162.066681 857.3,159.2 L857.3,145.9 L835.3,145.9 L835.3,138.1 L865.1,138.1 L865.1,161.5 L864.5,162.5 C861.699986,166.833355 858.283353,170.166655 854.25,172.5 C850.216647,174.833345 845.86669,176 841.2,176 Z M921,131.8 C923.800014,128.799985 925.899993,125.716683 927.3,122.55 C928.700007,119.383318 929.699997,116.600012 930.3,114.2 L922.5,114.2 L922.5,106.3 L956.6,106.3 L956.6,104.2 L964.4,104.2 L964.4,127.2 C964.4,129.733346 963.533342,131.866658 961.8,133.6 C960.066658,135.333342 957.933346,136.2 955.4,136.2 L941.4,136.2 L941.4,128.3 L955.4,128.3 C956.200004,128.3 956.6,127.933337 956.6,127.2 L956.6,114.2 L938.4,114.2 C938.066665,115.666674 937.616669,117.316658 937.05,119.15 C936.48333,120.983343 935.750004,122.89999 934.85,124.9 C933.949995,126.90001 932.83334,128.933323 931.5,131 C930.16666,133.066677 928.600009,135.09999 926.8,137.1 L921,131.8 Z M955.9,139.4 L963.8,139.4 L963.8,160 C963.8,162.533346 962.916675,164.666658 961.15,166.4 C959.383325,168.133342 957.266679,169 954.8,169 L923.9,169 L923.9,141.4 L955.9,141.4 L955.9,139.4 Z M955.9,149.3 L931.8,149.3 L931.8,161.1 L954.8,161.1 C955.533337,161.1 955.9,160.733337 955.9,160 L955.9,149.3 Z M966.7,172.3 L966.7,180.1 L905.8,180.1 C903.933324,180.1 902.066676,179.833336 900.2,179.3 C898.333324,178.766664 896.516676,178.100004 894.75,177.3 C892.983324,176.499996 891.350007,175.633338 889.85,174.7 C888.349992,173.766662 887.000006,172.866671 885.8,172 C884.866662,174.733347 884.06667,176.933325 883.4,178.6 C882.73333,180.266675 882.333334,181.166666 882.2,181.3 L875,178 L875.65,176.55 C876.083335,175.583328 876.616663,174.266675 877.25,172.6 C877.883336,170.933325 878.566663,168.966678 879.3,166.7 C880.033337,164.433322 880.73333,161.96668 881.4,159.3 C882.06667,156.63332 882.666664,153.816682 883.2,150.85 C883.733336,147.883319 884.099999,144.900015 884.3,141.9 L892.2,142.4 C891.933332,146.266686 891.450003,150.033315 890.75,153.7 C890.049997,157.366685 889.233338,160.799984 888.3,164 C889.566673,165.000005 891.166657,166.133327 893.1,167.4 C895.033343,168.666673 897.066656,169.766662 899.2,170.7 L899.2,135.9 L878.5,135.9 L878.5,128 L895.3,128 L895.3,119.1 L881.2,119.1 L881.2,111.2 L895.3,111.2 L895.3,103.1 L903.2,103.1 L903.2,111.2 L917.7,111.2 L917.7,119.1 L903.2,119.1 L903.2,128 L920.4,128 L920.4,135.9 L907.1,135.9 L907.1,148.3 L918.5,148.3 L918.5,156.1 L907.1,156.1 L907.1,172.3 L966.7,172.3 Z M1066.2,178.9 L1058.6,180.7 L1057.2,175 L1010,179.1 L1009.3,171.2 L1033,169.2 L1033,160.2 L1010.9,160.2 L1010.9,135.1 L1033,135.1 L1033,128.4 L1014.6,128.4 L1014.6,105.5 L1054.3,105.5 L1054.3,103.8 L1062.1,103.8 L1062.1,119.4 C1062.1,121.933346 1061.23334,124.066658 1059.5,125.8 C1057.76666,127.533342 1055.63335,128.4 1053.1,128.4 L1040.9,128.4 L1040.9,135.1 L1057.4,135.1 L1057.4,132.9 L1065.3,132.9 L1065.3,151.2 C1065.3,153.733346 1064.43334,155.866658 1062.7,157.6 C1060.96666,159.333342 1058.83335,160.2 1056.3,160.2 L1040.9,160.2 L1040.9,168.6 L1055.4,167.3 L1054.5,163.9 L1062.2,162 L1066.2,178.9 Z M1022.5,120.6 L1053.1,120.6 C1053.43333,120.6 1053.71667,120.483334 1053.95,120.25 C1054.18333,120.016666 1054.3,119.733335 1054.3,119.4 L1054.3,113.4 L1022.5,113.4 L1022.5,120.6 Z M1040.9,142.9 L1040.9,152.3 L1056.3,152.3 C1057.03334,152.3 1057.4,151.933337 1057.4,151.2 L1057.4,142.9 L1040.9,142.9 Z M1033,152.3 L1033,142.9 L1018.7,142.9 L1018.7,152.3 L1033,152.3 Z M999.4,127.4 C1000.13334,127.4 1000.5,127.033337 1000.5,126.3 L1000.5,114.3 L978.6,114.3 L978.6,106.4 L1000.5,106.4 L1000.5,104.5 L1008.4,104.5 L1008.4,126.3 C1008.4,128.833346 1007.51668,130.966658 1005.75,132.7 C1003.98332,134.433342 1001.86668,135.3 999.4,135.3 L987.8,135.3 L986.6,145.7 L1000.5,145.7 L1000.5,143.8 L1008.4,143.8 L1008.4,171.6 C1008.4,174.066679 1007.51668,176.166658 1005.75,177.9 C1003.98332,179.633342 1001.86668,180.5 999.4,180.5 L982.2,180.5 L982.2,172.7 L999.4,172.7 C1000.13334,172.7 1000.5,172.333337 1000.5,171.6 L1000.5,153.5 L977.7,153.5 L980.8,127.4 L999.4,127.4 Z M1141.5,113.2 L1166.1,113.2 L1166.1,121 L1127.4,121 L1127.4,130.4 L1153.3,130.4 L1153.3,128.5 L1161.1,128.5 L1161.1,171.1 C1161.1,173.633346 1160.23334,175.766658 1158.5,177.5 C1156.76666,179.233342 1154.63335,180.1 1152.1,180.1 L1143.9,180.1 L1143.9,172.3 L1152.1,172.3 C1152.43333,172.3 1152.71667,172.183335 1152.95,171.95 C1153.18333,171.716666 1153.3,171.433335 1153.3,171.1 L1153.3,138.3 L1127.4,138.3 L1127.4,142.8 C1127.4,145.866682 1127.05,148.899985 1126.35,151.9 C1125.65,154.900015 1124.76667,157.766653 1123.7,160.5 C1122.63333,163.233347 1121.46667,165.783321 1120.2,168.15 C1118.93333,170.516679 1117.75001,172.566658 1116.65,174.3 C1115.54999,176.033342 1114.61667,177.416662 1113.85,178.45 C1113.08333,179.483339 1112.63333,180.066666 1112.5,180.2 L1106.4,175.4 C1106.4,175.333333 1106.73333,174.866671 1107.4,174 C1108.06667,173.133329 1108.88333,171.916674 1109.85,170.35 C1110.81667,168.783325 1111.86666,166.966677 1113,164.9 C1114.13334,162.833323 1115.19999,160.600012 1116.2,158.2 C1117.20001,155.799988 1118.01666,153.283346 1118.65,150.65 C1119.28334,148.016653 1119.6,145.400013 1119.6,142.8 L1119.6,121 L1109.6,121 L1109.6,113.2 L1134.5,113.2 L1129.9,106.9 L1136.3,102.2 L1143.3,111.9 L1141.5,113.2 Z M1078.6,105.8 L1107.3,105.8 L1107.3,118.6 L1100.3,134.4 C1100.9,135.400005 1101.6,136.749992 1102.4,138.45 C1103.2,140.150009 1103.96666,142.249988 1104.7,144.75 C1105.43334,147.250012 1106.05,150.149984 1106.55,153.45 C1107.05,156.750017 1107.3,160.466646 1107.3,164.6 L1107.3,168.5 L1088.8,168.5 L1088.8,160.6 L1099.3,160.6 C1099.1,156.59998 1098.65,153.133348 1097.95,150.2 C1097.25,147.266652 1096.53334,144.866676 1095.8,143 C1095.06666,141.133324 1094.38334,139.733338 1093.75,138.8 L1092.8,137.4 L1091.2,135.5 L1099.4,116.9 L1099.4,113.7 L1086.5,113.7 L1086.5,179.6 L1078.6,179.6 L1078.6,105.8 Z M1176.7,122.2 C1179.43335,120.133323 1181.89999,117.983345 1184.1,115.75 C1186.30001,113.516655 1188.19999,111.450009 1189.8,109.55 C1191.40001,107.649991 1192.63333,106.066673 1193.5,104.8 L1194.8,102.9 L1201.4,107.2 C1201.33333,107.333334 1200.81667,108.099993 1199.85,109.5 C1198.88333,110.900007 1197.53334,112.633323 1195.8,114.7 C1194.06666,116.766677 1191.98335,119.016655 1189.55,121.45 C1187.11665,123.883345 1184.40001,126.233322 1181.4,128.5 L1176.7,122.2 Z M1186.2,145.5 C1185.46666,146.16667 1184.73334,146.799997 1184,147.4 C1183.26666,148.000003 1182.53334,148.566664 1181.8,149.1 L1177,142.9 C1179.86668,140.766656 1182.46666,138.516679 1184.8,136.15 C1187.13335,133.783321 1189.13333,131.60001 1190.8,129.6 C1192.46668,127.59999 1193.76666,125.93334 1194.7,124.6 L1196.1,122.6 L1202.7,126.9 C1202.56667,127.033334 1201.76667,128.14999 1200.3,130.25 C1198.83333,132.35001 1196.76668,134.866652 1194.1,137.8 L1194.1,180.4 L1186.2,180.4 L1186.2,145.5 Z M1213.6,147.3 L1213.6,171.3 L1218.6,170.5 L1218.7,140.5 L1203.7,140.5 L1203.7,132.6 L1218.7,132.6 L1218.8,118.3 L1212,118.3 C1211.26666,119.966675 1210.43334,121.633325 1209.5,123.3 C1208.56666,124.966675 1207.53334,126.566659 1206.4,128.1 L1200.1,123.4 C1201.70001,121.333323 1203.03333,119.116679 1204.1,116.75 C1205.16667,114.383321 1206.01666,112.216676 1206.65,110.25 C1207.28334,108.283323 1207.75,106.63334 1208.05,105.3 L1208.5,103.3 L1216.3,104.7 C1216.23333,104.833334 1216.1,105.416662 1215.9,106.45 C1215.7,107.483339 1215.33334,108.833325 1214.8,110.5 L1236.7,110.5 L1236.7,118.3 L1226.6,118.3 L1226.6,132.6 L1237.4,132.6 L1237.4,140.5 L1226.5,140.5 L1226.5,151.2 L1236,151.2 L1236,159.1 L1226.5,159.1 L1226.4,169.3 L1237,167.7 L1238.2,175.4 L1201.5,181.1 L1200.3,173.3 L1205.8,172.5 L1205.8,147.3 L1213.6,147.3 Z M1257.6,105.8 L1265.5,105.8 L1265.5,164.5 C1265.5,167.033346 1264.61668,169.166658 1262.85,170.9 C1261.08332,172.633342 1258.96668,173.5 1256.5,173.5 L1251.5,173.5 L1251.5,165.7 L1256.5,165.7 C1256.83334,165.7 1257.1,165.583335 1257.3,165.35 C1257.5,165.116666 1257.6,164.833335 1257.6,164.5 L1257.6,115.7 L1248.3,115.7 L1248.3,180.8 L1240.4,180.8 L1240.4,107.9 L1257.6,107.9 L1257.6,105.8 Z" id="精准识别攻击-310G超强防御" fill="#FFF200"></path>
            </g>
        </g>
        <g id="Group-7-Copy-2" transform="translate(317.000000, 0.000000)">
            <circle id="Oval-3" fill="url(#linearGradient-2)" cx="1595.5" cy="35.5" r="6.5"></circle>
            <rect id="Rectangle-5" fill="url(#linearGradient-3)" x="81" y="34" width="1510" height="2"></rect>
            <rect id="Rectangle-5-Copy" fill="url(#linearGradient-3)" x="0" y="6" width="1510" height="2"></rect>
            <circle id="Oval-3" fill="url(#linearGradient-2)" cx="1512.5" cy="6.5" r="6.5"></circle>
        </g>
    </g>
</svg>