<?xml version="1.0" standalone="no"?><!DOCTYPE svg PUBLIC "-//W3C//DTD SVG 1.1//EN" "http://www.w3.org/Graphics/SVG/1.1/DTD/svg11.dtd"><svg t="1524186337415" class="icon" style="" viewBox="0 0 1024 1024" version="1.1" xmlns="http://www.w3.org/2000/svg" p-id="2098" xmlns:xlink="http://www.w3.org/1999/xlink" width="200" height="200"><defs><style type="text/css"></style></defs><path d="M512 1024C229.227952 1024 0 794.772048 0 512S229.227952 0 512 0s512 229.227952 512 512-229.227952 512-512 512zM186.828183 814.484665l11.412048-78.978776-53.362737-57.288482-44.167711 1.647036a444.580087 444.580087 0 0 0 86.1184 134.620222zM106.30107 330.993812l69.111364-11.159132 32.570602-63.484299-0.186294-0.213436 0.532974-0.463885 0.708164-1.380549 0.885821-0.008636 85.925938-74.907451 14.506255-63.203007A445.933494 445.933494 0 0 0 106.30107 330.993812zM512 67.855422a444.218602 444.218602 0 0 0-125.043971 17.876819l-29.412241 128.146814 0.856212 0.986988-1.357108 1.178217-0.087596 0.379991-0.275123-0.062921-99.872077 87.067142-35.672212 75.710612 0.322005 1.99495L82.610892 403.554699l-0.544078-3.373032a447.381899 447.381899 0 0 0-2.72532 212.581167l94.702728-3.529716 0.023441 0.83894 0.023441-0.020974 94.415267 101.356261-0.685957 0.616867 2.187413 0.451547-22.57735 156.277205A442.065735 442.065735 0 0 0 512 956.144578c221.182766 0 404.576231-161.6896 438.497773-373.312154l-6.876838 3.255827 0.134477 0.291161-59.620241 32.401581-51.349282-111.57282L711.741687 531.456l10.61012 126.174072-0.80933 0.123374-170.520675 105.569465-3.956588-5.214998-0.920366 1.110362-225.711807-187.774458-2.44773-1.381783 160.677937-266.128964 0.478689 0.270188-0.37012-0.523104 155.697349-126.827952 19.683007-85.760616A443.612839 443.612839 0 0 0 512 67.855422z m205.540241 50.354891l-22.541571 98.205301-1.469378-0.336809L530.999518 348.479537 406.461378 554.752617l150.663711 125.340067 94.241311-58.347026L639.198072 477.023614l10.043836-1.461975-0.086361-0.632906L871.880482 430.310708l0.123373 0.880887 0.265253-0.144347 42.984559 93.393735 40.836627-19.331393C953.525359 336.899701 857.445783 191.3856 717.540241 118.210313z" p-id="2099" fill="#ffffff"></path></svg>